<svg xmlns="http://www.w3.org/2000/svg" width="100.052" height="71.313" viewBox="0 0 100.052 71.313">
  <g id="Group_1" data-name="Group 1" transform="translate(-508.366 -259.528)">
    <g id="Group_1-2" data-name="Group 1" transform="translate(508.366 289.445)">
      <path id="Path_1" data-name="Path 1" d="M582.873,383.878c-.457,1.565-.878,2.947-1.263,4.337q-1.591,5.732-3.15,11.473a.958.958,0,0,1-1.136.843c-1.021-.059-2.048-.015-3.128-.015-1.658-12.186-3.306-24.3-4.972-36.551h5.493c.28,2.086.55,4.207.853,6.322.479,3.341,1.005,6.675,1.462,10.019.289,2.114.489,4.241.733,6.362a2.649,2.649,0,0,0,.224.452c.43-1.31.808-2.42,1.16-3.539.641-2.039,1.256-4.086,1.913-6.12a.739.739,0,0,1,.53-.408c.909-.062,1.822-.088,2.733-.061a.829.829,0,0,1,.626.408,13.062,13.062,0,0,1,1.118,3.488c.149,2.355,1.332,4.366,1.836,6.588.03.13.115.247.347.371l3.271-23.656H596.5c-1.615,12.042-3.226,24.059-4.848,36.152-1.15,0-2.263.042-3.368-.035-.228-.016-.531-.445-.619-.737-.9-3.006-1.756-6.026-2.643-9.036-.605-2.052-1.24-4.1-1.867-6.142A3.907,3.907,0,0,0,582.873,383.878Z" transform="translate(-551.791 -363.965)" fill="#095893"/>
      <path id="Path_2" data-name="Path 2" d="M750.38,390.5q-.1-5.569,0-11.138c.049-3.131.143-6.2-1.667-9.018-2.114-3.277-7.279-6.6-12.63-4.128-.4.183-.776.4-1.381.713.175-.4.241-.541.315-.71a.835.835,0,0,0-.235.029c-2.509,1.627-4.426,3.69-4.807,6.8-.309,2.535-.662,5.073-.765,7.623-.106,2.678.054,5.368.117,8.052a15.211,15.211,0,0,1,.138,2.561,7.024,7.024,0,0,0,.857,4.386,11.755,11.755,0,0,0,9.717,6.554,2.032,2.032,0,0,1,1.243.713,9.33,9.33,0,0,0,3.741,2.922,5.014,5.014,0,0,0,3.18.375c.5-.12.716-.312.673-.868-.089-1.051-.132-2.111-.12-3.165.006-.616-.169-.871-.816-.865a2.192,2.192,0,0,1-2.275-1.266c.355-.309.725-.622,1.077-.945A10.894,10.894,0,0,0,750.38,390.5Zm-4.8,1.26c-.04,3.194-4.5,6.11-7.018,5.059a6.407,6.407,0,0,1-3.95-5.457c-.037-.759-.006-1.521-.006-2.366.246.109.367.163.487.218.026-.046.069-.092.066-.14-.014-1.424-.017-2.845-.057-4.268-.032-1.094-.172-2.189-.149-3.283.049-2.177.109-4.357.3-6.526a5.075,5.075,0,0,1,3.629-4.337c2.1-.793,3.753.418,5.153,1.873a5.1,5.1,0,0,1,1.438,3.483c.029.914.169,1.825.169,2.739C745.634,383.088,745.631,387.425,745.576,391.759Z" transform="translate(-665.92 -364.957)" fill="#095893"/>
      <path id="Path_3" data-name="Path 3" d="M681.518,400.864q-1.427-10.205-2.865-20.407c-.616-4.348-1.269-8.691-1.893-13.04-.072-.51-.266-.733-.819-.719-1.544.034-3.088.023-4.632.006-.613-.006-1.269-.152-1.355,1-.163-.41-.226-.57-.384-.968-.232,1.232-.456,2.226-.6,3.231-.312,2.154-.524,4.323-.891,6.463-.284,1.65-.819,3.254-1.106,4.9-.662,3.787-1.252,7.586-1.842,11.384-.309,2-.553,4.01-.833,6.016-.172,1.232-.355,2.461-.55,3.784,1.71,0,3.3.017,4.893-.023.166-.006.421-.332.473-.547a16.473,16.473,0,0,0,.43-2.438c.049-.616.344-.776.868-.791,1.742-.043,3.481-.117,5.219-.109a1,1,0,0,1,.7.622c.255.957.4,1.945.6,2.971h4.712C681.593,401.655,681.573,401.257,681.518,400.864Zm-6.211-7.336a6.474,6.474,0,0,1-1.329-.031c.029-.143.06-.286.129-.627l-3.142.375c.719-5.088,1.432-10.141,2.183-15.437a4.187,4.187,0,0,1,.281.713q1.053,7.111,2.074,14.229C675.54,393.007,675.416,393.511,675.307,393.528Z" transform="translate(-619.236 -365.913)" fill="#095893"/>
      <path id="Path_4" data-name="Path 4" d="M525.872,399.15c-.768-5.534-1.527-11.072-2.315-16.606-.725-5.062-1.49-10.121-2.211-15.182-.075-.5-.255-.667-.762-.659-1.573.031-3.145.026-4.718.006-.6-.009-1.22-.109-1.269.851l-.232.057c-.046-.18-.089-.364-.132-.544a19.991,19.991,0,0,0-.659,2.982c-.278,1.968-.438,3.956-.791,5.907-.43,2.378-1.071,4.715-1.5,7.09-.593,3.249-1.089,6.511-1.6,9.774-.255,1.63-.447,3.271-.667,4.907-.209,1.55-.421,3.1-.65,4.792,1.713,0,3.251.02,4.787-.026.2-.006.507-.335.564-.561a16.569,16.569,0,0,0,.393-2.28c.06-.607.272-.937.937-.945,1.742-.026,3.481-.109,5.219-.106a.906.906,0,0,1,.653.55c.232.879.327,1.8.567,2.676a.954.954,0,0,0,.722.49c.579.04,1.169-.08,1.753-.1.753-.02,1.51,0,2.315,0C526.124,401.067,526.006,400.107,525.872,399.15Zm-7.29-5.6c.034-.169.066-.332.135-.687-.922.129-1.779.261-2.641.361a.83.83,0,0,1-.59-.123c-.1-.095-.086-.375-.04-.553a23.766,23.766,0,0,0,.673-2.581c.5-3.8.942-7.611,1.409-11.415a3.057,3.057,0,0,1,.166-.53c.094,0,.189-.009.286-.011.745,5.139,1.49,10.275,2.254,15.54Z" transform="translate(-508.366 -365.918)" fill="#095893"/>
      <path id="Path_5" data-name="Path 5" d="M817.569,389.32c1.318,0,2.625-.026,3.929.031.174.008.46.435.471.679.093,2.081.158,4.165.186,6.249q.1,7.964.166,15.928c.013,1.852-.043,3.705-.08,5.557a9.54,9.54,0,0,1-.126.986l-5.08.237c0-1.043-.3-2.1.066-2.821.646-1.266.317-2.5.324-3.722.03-5.11-.063-10.221-.073-15.332,0-2.422.074-4.844.12-7.265A3.881,3.881,0,0,1,817.569,389.32Z" transform="translate(-728.53 -382.053)" fill="#095893"/>
    </g>
    <g id="Group_2" data-name="Group 2" transform="translate(531.382 259.528)">
      <path id="Path_6" data-name="Path 6" d="M689.883,291.405l5.832,3.978h3.708l1.468-.386,2.9-2.781,2.7-8.42-2.163-8.729-5.446-6.875-21.05-6.1-3.824,2.935-1.622.348-1.275.5-5.716-.116.386-.386.927.039-1.081-.348-5.523,3.051-3.013.116L655.779,268l-3.09,1.39-2.472.27-1.159-.7v.811l-3.244.155,3.167.463-.077.657,1.352-.116,2.124.966,2.781-.618,4.6,1.777,3.051-.232,3.09-.7.657-.232,1.2.116,3.592,2.472,1.815.888,4.519,1.12L682,277.578l1.236.348h.888l2.665,3.476,1.081,1.39.966,4.48.85,3.553Z" transform="translate(-629.456 -261.356)" fill="#f6931e"/>
      <path id="Path_7" data-name="Path 7" d="M708.7,260.262l-2.124,2.279-1.081.27h-1.352l-.888.579h-1.081l-.377-.27L700.676,263l-1.217-.072-.435-.71-1.81-.1-.464-.739-3.679-1.854,4.258.406.116-.406,1.97,1.333,2.723.261,1.275-.116,2.317-.744Z" transform="translate(-663.177 -259.528)" fill="#f6931e"/>
      <path id="Path_8" data-name="Path 8" d="M657.375,267.293l9.443.782.348-.391h1.188l1.275-1.415,1.477,1.931-2.057,1.9-2.375.492-.927-.2Z" transform="translate(-637.706 -264.338)" fill="#f6931e"/>
      <path id="Path_9" data-name="Path 9" d="M697.509,303.589l2.762-1.371-3.534-1.738-3.3-.5-5.89,1.545,5.543.261.019.415,2.665-.1Z" transform="translate(-659.232 -288.39)" fill="#f6931e"/>
      <path id="Path_10" data-name="Path 10" d="M632.609,281.345l-1.159,1.072-4.722.985-2.578-.811-1.188-.217-1.1-.507-1.883-.232-1.246-.869-.29-1.419-.782-1.39H617.2v-.377h-.84l-.2-.637-3.679-2.346,4.4.84.29-.116.608.579.811,1.188,2.636,2.665,2.694.666,3.708,1.188.782.116,1.333-.116.927-.406h.7Z" transform="translate(-605.669 -270.279)" fill="#f6931e"/>
      <path id="Path_11" data-name="Path 11" d="M588.712,283.717l3.389-2.346h4.114l.377.377,1.333.029.985.956.55.116v.232l-.7.319-1.448.029-1.217-.348-.927-.145-1.8.261-.985.2-.348-.145.116-.406Z" transform="translate(-588.712 -275.113)" fill="#f6931e"/>
    </g>
  </g>
</svg>
